<svg width="227" height="222" viewBox="0 0 227 222" fill="none" xmlns="http://www.w3.org/2000/svg">
<path fill-rule="evenodd" clip-rule="evenodd" d="M126.378 0H208.485C218.221 0 226.142 7.77979 226.142 17.3424V67.6352C226.142 77.1978 218.221 84.9776 208.485 84.9776H161.595V97.9844C161.595 103.722 156.843 108.39 151.001 108.39H63.3149L46.6559 124.751C45.8115 125.581 44.6823 126.021 43.5337 126.021C42.9647 126.021 42.3912 125.913 41.8452 125.691C40.196 125.02 39.1202 123.439 39.1202 121.686V108.39H34.5588C28.7169 108.39 23.9644 103.722 23.9644 97.9844V29.482C23.9644 23.7447 28.7169 19.0766 34.5588 19.0766H108.72V17.3424C108.72 7.77979 116.641 0 126.378 0ZM151.001 99.7186C151.975 99.7186 152.767 98.9408 152.767 97.9844V84.9776H126.378C116.641 84.9776 108.72 77.1978 108.72 67.6352V27.7478H34.5588C33.585 27.7478 32.7931 28.5256 32.7931 29.482V97.9844C32.7931 98.9408 33.585 99.7186 34.5588 99.7186H43.535C45.973 99.7186 47.9494 101.66 47.9494 104.054V111.219L58.365 100.988C59.1927 100.176 60.3158 99.7186 61.4864 99.7186H151.001ZM208.485 76.3064C213.353 76.3064 217.313 72.4165 217.313 67.6352V17.3424C217.313 12.5611 213.353 8.67118 208.485 8.67118H126.378C121.509 8.67118 117.549 12.5611 117.549 17.3424V67.6352C117.549 72.4165 121.509 76.3064 126.378 76.3064H208.485ZM132.11 115.742V147.644C140.963 149.622 147.592 157.41 147.592 166.695C147.592 175.98 140.963 183.767 132.11 185.745V217.647C132.11 219.087 131.382 220.433 130.168 221.239C129.427 221.73 128.564 221.982 127.695 221.982C127.139 221.982 126.58 221.879 126.049 221.669L55.2501 193.702V217.646C55.2501 220.04 53.2738 221.982 50.8358 221.982H32.8146C30.3765 221.982 28.4002 220.04 28.4002 217.646V191.611H25.4828C11.5025 191.611 0.128906 180.44 0.128906 166.709C0.128906 152.979 11.5025 141.808 25.4819 141.808H49.9816L126.047 111.721C127.408 111.183 128.951 111.343 130.167 112.149C131.382 112.955 132.11 114.302 132.11 115.742ZM37.2289 213.311H46.421H46.4214V191.61H37.2289V213.311ZM25.4828 182.939H46.4218L46.4236 150.479H25.4828C16.3707 150.479 8.95762 157.76 8.95762 166.709C8.95762 175.658 16.3707 182.939 25.4828 182.939ZM123.282 211.229H123.282V122.162L112.386 126.472V172.99C112.386 175.384 110.41 177.326 107.972 177.326C105.534 177.326 103.557 175.384 103.557 172.99V129.964L55.2523 149.071V184.356L123.282 211.229ZM132.11 156.729V176.66C136.022 174.982 138.764 171.148 138.764 166.695C138.764 162.242 136.022 158.407 132.11 156.729ZM107.971 186.369C109.132 186.369 110.271 186.833 111.092 187.639C111.913 188.445 112.386 189.564 112.386 190.705C112.386 191.845 111.913 192.964 111.092 193.77C110.271 194.581 109.132 195.04 107.971 195.04C106.81 195.04 105.671 194.581 104.85 193.77C104.029 192.964 103.557 191.85 103.557 190.705C103.557 189.564 104.029 188.445 104.85 187.639C105.671 186.833 106.81 186.369 107.971 186.369ZM189.703 162.488H164.709C162.271 162.488 160.295 164.43 160.295 166.824C160.295 169.218 162.271 171.16 164.709 171.16H189.703C192.141 171.16 194.117 169.218 194.117 166.824C194.117 164.43 192.141 162.488 189.703 162.488ZM162.963 130.714C164.688 129.021 167.483 129.021 169.207 130.714C170.93 132.407 170.93 135.152 169.207 136.845L160.585 145.313C159.724 146.159 158.594 146.582 157.464 146.582C156.334 146.582 155.205 146.159 154.342 145.313C152.618 143.619 152.618 140.874 154.342 139.181L162.963 130.714ZM169.534 196.394L160.625 187.642C158.901 185.95 156.106 185.95 154.382 187.642C152.658 189.335 152.658 192.081 154.382 193.774L163.292 202.526C164.154 203.372 165.283 203.795 166.413 203.795C167.543 203.795 168.673 203.372 169.534 202.526C171.258 200.832 171.258 198.087 169.534 196.394ZM185.169 38.7329L154.957 21.6013C153.591 20.8266 151.908 20.8266 150.542 21.6013C149.176 22.3757 148.335 23.8073 148.335 25.3559V59.6187C148.335 61.1673 149.176 62.5989 150.542 63.3733C151.225 63.7609 151.987 63.9542 152.749 63.9542C153.512 63.9542 154.274 63.7609 154.957 63.3733L185.169 46.2417C186.534 45.4674 187.376 44.0358 187.376 42.4871C187.376 40.9384 186.535 39.5072 185.169 38.7329ZM157.164 52.1095V32.8656L174.133 42.4875L157.164 52.1095ZM50.6804 45.5239H94.824C97.2621 45.5239 99.2384 47.4656 99.2384 49.8599C99.2384 52.2542 97.2621 54.1958 94.824 54.1958H50.6804C48.2424 54.1958 46.2661 52.2542 46.2661 49.8599C46.2661 47.4656 48.2424 45.5239 50.6804 45.5239ZM97.9424 71.0737C97.1213 70.2669 95.9824 69.8035 94.8214 69.8035C93.6605 69.8035 92.5215 70.2669 91.7005 71.0737C90.8794 71.8801 90.4071 72.9986 90.4071 74.1388C90.4071 75.279 90.8794 76.3976 91.7005 77.2035C92.5215 78.0099 93.6605 78.4742 94.8214 78.4742C95.9868 78.4742 97.1213 78.0103 97.9424 77.2035C98.7635 76.3976 99.2358 75.279 99.2358 74.1388C99.2358 72.9986 98.7635 71.8801 97.9424 71.0737ZM50.6804 69.8035H78.2653C80.7034 69.8035 82.6797 71.7448 82.6797 74.1388C82.6797 76.5328 80.7034 78.4742 78.2653 78.4742H50.6804C48.2424 78.4742 46.2661 76.5328 46.2661 74.1388C46.2661 71.7448 48.2424 69.8035 50.6804 69.8035Z" fill="#1FCFCB"/>
</svg>
