<svg width="43" height="68" viewBox="0 0 43 68" fill="none" xmlns="http://www.w3.org/2000/svg">
<path fill-rule="evenodd" clip-rule="evenodd" d="M38.0236 39.3314C38.0456 39.3317 38.0677 39.3321 38.0897 39.3327C40.4956 39.4 42.3923 41.44 42.3263 43.8892L42.3263 56.2643C42.2712 60.1309 40.418 67.3879 33.7851 67.3879L33.6933 67.3879C33.6933 67.3879 29.8585 67.6214 25.4365 67.6214C24.0328 67.6214 22.565 67.6027 21.1338 67.5373C19.4732 67.4719 15.4182 66.7621 12.877 61.672L4.79445 45.4956C3.30708 43.6284 3.55123 40.8949 5.3449 39.3314C7.26393 37.8636 9.98753 38.252 11.4366 40.2L13.5283 43.0673L13.5283 33.1953C11.5467 32.1966 9.94212 30.5631 8.96116 28.5457C6.48859 23.4607 8.5333 17.2978 13.5283 14.7807C18.5232 12.2635 24.577 14.3451 27.0496 19.4302C29.5221 24.5152 27.4774 30.6781 22.4824 33.1953L22.4824 35.4555C23.173 34.9356 24.0088 34.6542 24.8677 34.6523C26.8797 34.7244 28.571 36.2129 28.9319 38.2294C29.6354 37.6389 30.5155 37.3094 31.4273 37.2954C33.2602 37.3365 34.8592 38.5726 35.3905 40.3588C36.1184 39.7053 37.0531 39.3405 38.0236 39.3314ZM13.4916 26.5359L13.4916 26.5347C13.492 24.0175 15.4967 21.9772 17.9693 21.9776C20.4419 21.9779 22.446 24.0189 22.4457 26.5361L22.4457 31.0004C24.8248 29.4464 26.2577 26.7614 26.2436 23.8837C26.2209 19.2414 22.5058 15.4969 17.9457 15.52C13.3857 15.5431 9.70749 19.3252 9.73019 23.9675C9.73615 26.8082 11.1511 29.4537 13.4916 31.0003L13.4916 26.5359ZM33.4339 65.526C33.5034 65.5221 33.5419 65.5199 33.5465 65.5199C40.1795 65.5853 40.3997 56.6285 40.3997 56.246L40.3446 43.8896C40.363 43.7161 40.363 43.5411 40.3446 43.3676C40.2031 42.029 39.0224 41.0607 37.7076 41.2049C36.3927 41.3489 35.4416 42.5509 35.5832 43.8894L35.5832 49.3251C35.5832 49.8409 35.1724 50.2591 34.6658 50.2591C34.1591 50.2591 33.7484 49.8409 33.7484 49.3251L33.7484 41.8534C33.7667 41.6799 33.7667 41.5049 33.7484 41.3314C33.6068 39.9928 32.4261 39.0245 31.1113 39.1687C29.7964 39.3128 28.8453 40.5148 28.9869 41.8533L28.9869 45.9254C28.9869 46.4412 28.5761 46.8593 28.0695 46.8593C27.5629 46.8593 27.1521 46.4412 27.1521 45.9254L27.1521 39.2101C27.1704 39.0367 27.1704 38.8617 27.1521 38.6882C27.0106 37.3496 25.8298 36.3813 24.5151 36.5254C23.2002 36.6695 22.249 37.8715 22.3906 39.21L22.3906 43.0673C22.3906 43.5831 21.9799 44.0013 21.4732 44.0013C20.9666 44.0013 20.5558 43.5831 20.5558 43.0673L20.5558 26.5361C20.5558 25.0505 19.3729 23.8462 17.9136 23.8462C16.4543 23.8462 15.2714 25.0505 15.2714 26.5361L15.2714 46L15.2714 46.0654C15.2775 46.1275 15.2775 46.19 15.2714 46.2521C15.2578 46.3067 15.2394 46.3598 15.2164 46.4109C15.1904 46.4605 15.1596 46.5075 15.1246 46.551C15.0873 46.6025 15.0441 46.6496 14.9962 46.6911L14.9503 46.7378L14.8586 46.7378L14.6935 46.8125L14.51 46.8125L14.4091 46.8125L14.3448 46.8125L14.1613 46.8125L14.0054 46.7565C13.9036 46.6957 13.8109 46.6201 13.7302 46.5323L13.6751 46.4856L10.0054 41.3395C9.18639 40.2171 7.63399 39.9717 6.51921 40.7884C5.47931 41.7239 5.37678 43.3389 6.28985 44.4029C6.32873 44.4522 6.36244 44.5054 6.39077 44.5617L14.5008 60.8221C16.5742 65.0249 19.8586 65.6133 21.1613 65.6694C26.5812 65.9119 32.5456 65.576 33.4339 65.526ZM9.51595 8.84497L6.69246 2.53835C6.41704 1.92315 6.69257 1.20115 7.30766 0.925771C7.92275 0.650394 8.64481 0.92577 8.92024 1.54097L11.7437 7.84759C12.0192 8.46279 11.7436 9.18479 11.1285 9.46017C10.5134 9.73555 9.79137 9.46017 9.51595 8.84497ZM0.846856 11.3661C0.606782 11.9956 0.922484 12.7008 1.55201 12.9411L4.70073 14.1424C5.33031 14.3825 6.03547 14.0668 6.27577 13.4372C6.39574 13.1223 6.37695 12.7886 6.24936 12.5036C6.12177 12.2186 5.88533 11.9822 5.57062 11.8622L2.4219 10.6609C1.79232 10.4207 1.08715 10.7364 0.846856 11.3661ZM16.4416 6.98399L17.6834 3.72928C17.9237 3.09951 18.629 2.78374 19.2587 3.02398C19.5735 3.14407 19.81 3.3805 19.9376 3.66554C20.0652 3.95059 20.084 4.28436 19.964 4.59924L18.7223 7.85407C18.4819 8.48383 17.7766 8.7996 17.1469 8.55937C16.5172 8.31897 16.2015 7.61366 16.4416 6.98399Z" fill="#1FCFCB"/>
</svg>
