<svg width="224" height="180" viewBox="0 0 224 180" fill="none" xmlns="http://www.w3.org/2000/svg">
<path fill-rule="evenodd" clip-rule="evenodd" d="M165.493 0C180.048 0 193.955 2.33056 204.651 6.56176C216.68 11.3202 223.305 18.0869 223.305 25.6152V128.076C223.305 135.604 216.68 142.371 204.651 147.129C194.703 151.065 181.976 153.353 168.535 153.654V153.691C168.535 168.294 144.242 179.306 112.027 179.306C79.8125 179.306 55.5193 168.294 55.5193 153.691V153.654C42.0782 153.353 29.3517 151.065 19.4033 147.129C7.37447 142.371 0.75 135.604 0.75 128.076V25.6152C0.75 18.0869 7.37447 11.3202 19.4033 6.56176C30.0998 2.33056 44.0069 0 58.562 0C73.1172 0 87.0242 2.33056 97.7207 6.56219C104.042 9.06266 108.868 12.1181 112.027 15.5471C115.187 12.1181 120.013 9.06223 126.334 6.56176C137.03 2.33056 150.937 0 165.493 0ZM201.403 113.594C209.55 110.371 214.611 106.105 214.611 102.461L214.611 90.6718C211.887 92.5972 208.556 94.3544 204.652 95.899C194.702 99.8348 181.976 102.123 168.534 102.424C168.534 102.43 168.535 102.436 168.535 102.442C168.535 102.448 168.535 102.455 168.535 102.461V119.495C180.748 119.192 192.586 117.082 201.403 113.594ZM94.4728 62.3636C102.62 59.1408 107.68 54.875 107.68 51.2304V39.4414C104.956 41.3668 101.625 43.124 97.7207 44.6686C87.0242 48.8998 73.1172 51.2304 58.562 51.2304C44.0069 51.2304 30.0998 48.8998 19.4033 44.6686C15.4986 43.124 12.1677 41.3668 9.44354 39.4414V51.2304C9.44354 54.875 14.5045 59.1408 22.6512 62.3636C32.1997 66.141 45.2887 68.3072 58.562 68.3072C71.8353 68.3072 84.9243 66.141 94.4728 62.3636ZM58.562 76.8456C44.0069 76.8456 30.0998 74.515 19.4033 70.2838C15.4986 68.7392 12.1677 66.982 9.44354 65.0566V76.8456C9.44354 80.4902 14.5045 84.756 22.6512 87.9788C32.1754 91.7464 45.2222 93.91 58.4607 93.9211C61.8843 89.187 68.1797 85.1513 76.9284 82.1249C85.6511 79.1078 96.4354 77.2951 107.68 76.9212V65.0566C104.956 66.982 101.625 68.7392 97.7207 70.2838C87.0242 74.515 73.1172 76.8456 58.562 76.8456ZM19.4033 95.899C15.4986 94.3544 12.1677 92.5972 9.44354 90.6718V102.461C9.44354 106.105 14.5045 110.371 22.6516 113.594C31.469 117.082 43.3066 119.192 55.5197 119.495V102.461C55.5197 102.455 55.5199 102.449 55.5201 102.443C55.5204 102.437 55.5206 102.43 55.5206 102.424C42.0791 102.123 29.3522 99.8344 19.4033 95.899ZM112.027 85.384C86.4874 85.384 67.8941 93.0002 64.6727 100.363C64.3645 101.072 64.2128 101.761 64.2128 102.461C64.2128 106.214 68.9243 110.384 76.8163 113.613C86.1514 117.434 98.6562 119.538 112.027 119.538C125.398 119.538 137.903 117.434 147.238 113.613C155.13 110.384 159.842 106.214 159.842 102.461C159.842 101.761 159.69 101.072 159.378 100.355C156.16 93.0002 137.567 85.384 112.027 85.384ZM201.403 87.9788C209.55 84.756 214.611 80.4902 214.611 76.8456V65.0566C211.887 66.982 208.556 68.7392 204.651 70.2838C193.955 74.515 180.048 76.8456 165.493 76.8456C150.937 76.8456 137.03 74.515 126.334 70.2838C122.429 68.7392 119.098 66.982 116.374 65.0566V76.9212C127.619 77.2951 138.403 79.1074 147.126 82.1249C155.878 85.1522 162.174 89.1896 165.595 93.9211C178.833 93.91 191.88 91.7464 201.403 87.9788ZM201.403 62.3636C209.55 59.1408 214.611 54.875 214.611 51.2304V39.4414C211.887 41.3668 208.556 43.124 204.651 44.6686C193.955 48.8998 180.048 51.2304 165.493 51.2304C150.937 51.2304 137.03 48.8998 126.334 44.6686C122.429 43.124 119.098 41.3668 116.374 39.4414V51.2304C116.374 54.875 121.435 59.1408 129.582 62.3636C139.13 66.141 152.219 68.3072 165.493 68.3072C178.766 68.3072 191.855 66.141 201.403 62.3636ZM165.493 8.5384C152.219 8.5384 139.13 10.7046 129.582 14.482C121.435 17.7048 116.374 21.9706 116.374 25.6152C116.374 29.2598 121.435 33.5256 129.582 36.7484C139.13 40.5258 152.219 42.692 165.493 42.692C178.766 42.692 191.855 40.5258 201.403 36.7484C209.55 33.5256 214.611 29.2598 214.611 25.6152C214.611 21.9706 209.55 17.7048 201.403 14.482C191.855 10.7046 178.766 8.5384 165.493 8.5384ZM58.562 8.5384C45.2887 8.5384 32.1997 10.7046 22.6512 14.482C14.5045 17.7048 9.44354 21.9706 9.44354 25.6152C9.44354 29.2598 14.5045 33.5256 22.6512 36.7484C32.1997 40.5258 45.2887 42.692 58.562 42.692C71.8353 42.692 84.9243 40.5258 94.4728 36.7484C102.62 33.5256 107.68 29.2598 107.68 25.6152C107.68 21.9706 102.62 17.7048 94.4728 14.482C84.9243 10.7046 71.8353 8.5384 58.562 8.5384ZM9.44354 128.076C9.44354 131.721 14.5045 135.986 22.6512 139.209C31.4686 142.698 43.3062 144.807 55.5193 145.111V128.039C42.0782 127.738 29.3517 125.45 19.4033 121.514C15.4986 119.97 12.1677 118.212 9.44354 116.287V128.076ZM112.027 170.768C125.398 170.768 137.903 168.664 147.238 164.844C155.13 161.614 159.842 157.445 159.842 153.691V142.151C158.857 142.851 157.769 143.546 156.563 144.232C149.812 148.069 140.628 150.906 130.002 152.438C129.788 152.468 129.575 152.483 129.365 152.483C127.244 152.483 125.387 150.957 125.07 148.834C124.721 146.501 126.364 144.332 128.739 143.99C148.941 141.077 159.842 133.617 159.842 128.076V116.498C150.003 123.569 132.637 128.076 112.027 128.076C91.4179 128.076 74.0513 123.569 64.2128 116.498V128.076C64.2128 133.617 75.1136 141.077 95.3152 143.99C97.6899 144.332 99.333 146.501 98.9844 148.834C98.667 150.956 96.8105 152.483 94.6893 152.483C94.4789 152.483 94.2668 152.468 94.0525 152.438C83.4264 150.906 74.2421 148.068 67.492 144.232C66.2854 143.546 65.1974 142.851 64.2128 142.151V153.691C64.2128 157.445 68.9243 161.614 76.8163 164.844C86.1514 168.664 98.6562 170.768 112.027 170.768ZM168.535 145.111C180.748 144.807 192.586 142.697 201.403 139.209C209.55 135.986 214.611 131.721 214.611 128.076V116.287C211.887 118.212 208.556 119.969 204.651 121.514C194.703 125.449 181.976 127.737 168.535 128.039V145.111ZM108.936 149.99C108.936 147.633 110.883 145.721 113.282 145.721C115.682 145.721 117.629 147.633 117.629 149.99C117.629 152.346 115.682 154.259 113.282 154.259C110.883 154.259 108.936 152.346 108.936 149.99Z" fill="#1FCFCB"/>
</svg>
